<svg xmlns="http://www.w3.org/2000/svg" viewBox="0 0 64 64"  role="img" aria-label="Drift Assist — Live threads">
<style>.ink{color:#eb4328}@media (prefers-color-scheme: dark){.ink{color:#ff795f}}</style><g id="favicon" class="ink"><path id="thread-1" d="M24 8H48Q56 8 56 16V48Q56 56 48 56H24" fill="none" stroke="currentColor" stroke-width="6" stroke-linecap="round" stroke-linejoin="round"/><path id="thread-2" d="M8 18H39" fill="none" stroke="currentColor" stroke-width="6" stroke-linecap="round" stroke-linejoin="round"/><path id="thread-3" d="M8 32H39" fill="none" stroke="currentColor" stroke-width="6" stroke-linecap="round" stroke-linejoin="round"/><path id="thread-4" d="M8 46H39" fill="none" stroke="currentColor" stroke-width="6" stroke-linecap="round" stroke-linejoin="round"/><path id="node-1" d="M34 18a5 5 0 1 0 10 0a5 5 0 1 0 -10 0Z" fill="currentColor"/><path id="node-2" d="M34 32a5 5 0 1 0 10 0a5 5 0 1 0 -10 0Z" fill="currentColor"/><path id="node-3" d="M34 46a5 5 0 1 0 10 0a5 5 0 1 0 -10 0Z" fill="currentColor"/></g>
</svg>
